<svg width="578" height="414" viewBox="0 0 578 414" fill="none" xmlns="http://www.w3.org/2000/svg">
<g clip-path="url(#clip0_15_171)">
<path d="M647.047 455.969H-69.0468V-55.4845H647.047V455.969Z" fill="white"/>
<path d="M297.58 411.332C297.58 411.332 342.016 412.848 351.76 408.23C361.504 403.609 352.055 397.51 352.055 397.51C352.055 397.51 373.167 392.503 374.555 385.915C375.944 379.325 365.811 380.361 365.811 380.361C365.811 380.361 386.036 366.227 383.136 361.887C377.734 353.804 354.868 368.043 354.868 368.043C354.868 368.043 362.481 360.47 357.113 357.657C349.021 353.418 337.27 373.814 337.27 373.814C337.27 373.814 337.858 368.876 331.636 368.572C320.467 368.03 297.58 411.332 297.58 411.332Z" fill="#466EB6"/>
<path d="M331.244 365.017C337.469 365.319 337.27 373.814 337.27 373.814C337.27 373.814 349.106 349.715 357.198 353.957C362.563 356.77 356.737 366.915 356.737 366.915C356.737 366.915 377.734 353.804 383.136 361.887L301.294 408.23C303.943 403.159 320.815 364.508 331.244 365.017Z" fill="#355389"/>
<path d="M297.606 411.34C297.606 411.34 335.838 384.741 341.339 373.047C346.84 361.353 336.306 362.327 336.306 362.327C336.306 362.327 352.034 341.618 348.3 334.463C344.569 327.31 335.978 335.979 335.978 335.979C335.978 335.979 343.935 307.502 337.945 305.691C326.789 302.323 315.879 338.388 315.879 338.388C315.879 338.388 311.71 318.437 304.603 319.917C293.885 322.155 304.58 351.653 304.58 351.653C304.58 351.653 301.419 342.043 295.427 346.5C284.678 354.499 297.606 411.34 297.606 411.34Z" fill="#466EB6"/>
<path d="M284.969 346.96C291.719 343.769 293.074 337.051 293.074 337.051C293.074 337.051 293.12 320.37 303.838 318.135C310.948 316.652 315.923 330.052 315.923 330.052C315.923 330.052 326.789 302.323 337.945 305.691L297.491 410.892C296.079 404.187 276.929 350.766 284.969 346.96Z" fill="#355389"/>
<path d="M146.58 412.314C146.58 412.314 68.29 361.677 55.6998 337.798C43.1096 313.918 61.1589 313.708 61.1589 313.708C61.1589 313.708 26.3696 271.989 33.4786 256.704C40.5874 241.417 59.3357 258.696 59.3357 258.696C59.3357 258.696 40.0268 200.017 52.353 195.675C75.3115 187.584 99.7523 250.439 99.7523 250.439C99.7523 250.439 95.87 223.838 110.844 226.257C133.425 229.904 126.352 288.417 126.352 288.417C126.352 288.417 131.269 266.212 144.196 274.945C167.388 290.614 146.58 412.314 146.58 412.314Z" fill="#355389"/>
<path d="M150.087 266.396C140.017 259.346 127.555 275.569 127.555 275.569C127.555 275.569 133.425 229.904 110.844 226.257C95.87 223.838 99.7523 250.439 99.7523 250.439C99.7523 250.439 75.3115 187.584 52.353 195.675L146.78 411.37C149.085 397.239 170.035 280.364 150.087 266.396Z" fill="#466EB6"/>
<path d="M145.908 411.999C145.908 411.999 73.9872 412.352 56.5724 402.32C39.1575 392.291 53.4632 384.171 53.4632 384.171C53.4632 384.171 14.9847 371.728 13.3858 359.281C11.7866 346.835 30.4554 350.262 30.4554 350.262C30.4554 350.262 -5.01604 320.996 1.01731 313.366C12.2549 299.15 52.6167 329.008 52.6167 329.008C52.6167 329.008 39.603 313.805 49.9899 309.379C65.6542 302.702 84.4524 342.347 84.4524 342.347C84.4524 342.347 84.0952 333.085 95.7028 333.448C116.529 334.095 145.908 411.999 145.908 411.999Z" fill="#355389"/>
<path d="M96.9555 326.896C85.3481 326.536 84.4525 342.347 84.4525 342.347C84.4525 342.347 66.0499 295.815 50.3856 302.492C39.9987 306.919 49.3127 326.633 49.3127 326.633C49.3127 326.633 12.2549 299.15 1.01733 313.366L146.17 411.631C142.006 401.819 116.408 327.502 96.9555 326.896Z" fill="#466EB6"/>
<path d="M66.0077 412.623C66.0077 413.513 66.9194 414.234 68.044 414.234H575.637C576.762 414.234 577.673 413.513 577.673 412.623C577.673 411.733 576.762 411.012 575.637 411.012H68.044C66.9194 411.012 66.0077 411.733 66.0077 412.623Z" fill="#13375B"/>
<path d="M386.749 31.6621L379.064 31.0432L378.016 38.1499L370.417 37.8737L368.578 44.543L362.857 45.2667L363.223 48.1616L370.873 47.1949L372.619 40.8733L380.522 41.1623L381.553 34.1708L388.519 34.7334L386.749 31.6621Z" fill="#F48C7F"/>
<path d="M71.1861 115.645L67.3381 118.338L62.3213 112.625L56.209 115.868L51.7559 112.208L49.902 114.461L55.8581 119.358L61.6508 116.285L66.8693 122.228L72.6605 118.177L71.1861 115.645Z" fill="#F48C7F"/>
<path d="M535.063 57.7998L541.193 58.4264C541.505 58.457 541.781 58.6386 541.932 58.9097L544.883 64.2288C545.262 64.9116 546.272 64.8707 546.594 64.1597L549.093 58.6232C549.221 58.3394 549.482 58.1374 549.789 58.0811L555.847 56.9661C556.625 56.8229 556.898 55.864 556.31 55.3448L551.725 51.2967C551.492 51.0921 551.374 50.7852 551.415 50.4783L552.208 44.4688C552.31 43.699 551.469 43.1492 550.783 43.5379L545.451 46.5734C545.18 46.7294 544.848 46.7422 544.564 46.6092L538.996 44.011C538.28 43.6786 537.487 44.2949 537.653 45.0544L538.942 50.9796C539.009 51.2813 538.919 51.5959 538.702 51.8209L534.469 56.222C533.925 56.7871 534.278 57.7206 535.063 57.7998Z" fill="#96D9C9"/>
<path d="M162.626 14.623L168.757 15.2495C169.069 15.2802 169.346 15.4618 169.496 15.7328L172.447 21.0519C172.826 21.7347 173.836 21.6938 174.157 20.9829L176.657 15.4438C176.784 15.1625 177.044 14.9605 177.353 14.9017L183.411 13.7868C184.188 13.6435 184.461 12.6871 183.873 12.168L179.287 8.11981C179.054 7.91267 178.938 7.6058 178.979 7.30149L179.772 1.29191C179.873 0.522169 179.032 -0.0301609 178.348 0.361101L173.014 3.39656C172.742 3.54999 172.41 3.56535 172.127 3.43237L166.558 0.834196C165.844 0.501751 165.051 1.11547 165.216 1.87753L166.506 7.80275C166.571 8.10451 166.481 8.41902 166.266 8.6415L162.031 13.0451C161.488 13.6103 161.84 14.5411 162.626 14.623Z" fill="#F7CC7F"/>
<path d="M538.262 125.964L544.392 126.59C544.704 126.624 544.98 126.803 545.131 127.074L548.083 132.395C548.461 133.076 549.471 133.035 549.791 132.326L552.292 126.787C552.42 126.506 552.678 126.301 552.988 126.245L559.047 125.13C559.824 124.987 560.098 124.031 559.509 123.512L554.924 119.461C554.689 119.256 554.574 118.949 554.614 118.645L555.407 112.635C555.51 111.866 554.668 111.313 553.983 111.702L548.648 114.74C548.377 114.894 548.047 114.906 547.763 114.773L542.193 112.175C541.479 111.843 540.686 112.459 540.853 113.221L542.142 119.144C542.206 119.448 542.116 119.76 541.901 119.985L537.666 124.389C537.124 124.954 537.474 125.885 538.262 125.964Z" fill="#F7CC7F"/>
<path d="M499.951 274.817C499.682 274.93 503.511 279.865 507.242 283.356C510.252 287.131 513.073 291.598 514.045 296.47C515.521 303.878 514.293 340.48 515.577 343.084C526.618 353.878 534.612 380.962 536.855 389.224C537.293 390.835 538.18 392.288 539.408 393.418L538.917 402.755L533.431 407.808C533.431 407.808 534.651 400.198 532.214 394.554C532.214 394.554 504.416 352.464 502.767 349.244C499.616 340.081 488.135 293.138 488.135 293.138L485.471 282.348C485.471 282.348 499.928 274.828 499.951 274.817Z" fill="#F7A491"/>
<path d="M545.418 396.421C545.418 396.421 541.945 401.77 541.648 403.857C541.351 405.941 539.502 410.67 537.459 410.969C536.993 411.038 529.04 411.621 529.096 410.626C529.142 409.867 532.019 408.782 533.357 407.859C535.669 406.263 539.254 393.265 539.254 393.265C539.254 393.265 545.267 394.756 545.418 396.421Z" fill="#F47458"/>
<path d="M476.192 291.038C476.192 291.038 458.29 329.315 458.175 336.043C458.077 341.813 461.305 374.18 460.405 401.131C460.371 402.105 459.139 403.399 457.346 404.22C456.336 404.683 451.576 407.015 451.576 407.015L450.791 408.606L467.581 407.409L467.924 403.517L467.821 402.826C467.821 402.826 474.504 362.506 473.821 351.103C473.714 349.311 472.844 338.588 472.844 338.588L493.036 299.605L480.335 282.921L476.192 291.038Z" fill="#F7A491"/>
<path d="M517.232 337.018C517.229 337.025 517.227 337.025 517.224 337.018H517.232Z" fill="#13375B"/>
<path d="M454.282 318.884L489.422 268.122C491.591 269 493.639 269.764 495.956 270.212C500.994 271.183 506.04 271.027 511.14 270.861C511.142 271.053 511.15 271.219 511.171 271.36C511.756 275.544 517.309 282.024 518.454 294.723C519.753 309.138 518.966 334.179 518.526 335.823C495.166 332.982 460.911 325.84 454.282 318.884Z" fill="#13375B"/>
<path d="M500.158 200.462C500.017 201.943 499.232 203.076 498.404 202.991C497.575 202.907 497.017 201.636 497.156 200.155C497.296 198.675 498.081 197.542 498.91 197.626C499.739 197.711 500.296 198.979 500.158 200.462Z" fill="#F7A491"/>
<path d="M468.082 411.191H446.055C445.272 411.122 445.067 410.133 445.51 409.69C446.203 408.997 448.794 408.296 451.576 407.015C456.456 407.524 467.154 404.629 467.924 403.512C468.369 405.749 468.52 411.097 468.082 411.191Z" fill="#F47458"/>
<path d="M448.924 229.262C449.812 230.891 450.62 232.901 450.742 232.814C450.939 232.671 449.699 230.479 448.824 228.807C447.95 227.134 448.617 219.442 449.43 224.956C450.246 230.469 455.579 234.684 455.735 232.993C455.891 231.3 458.602 237.297 458.594 238.433C458.591 239.026 458.96 239.555 459.517 239.757L473.532 244.856L482.685 228.917L493.035 231.124C493.035 231.124 484.708 252.781 477.611 256.047C474.376 257.535 459.157 247.048 453.305 241.915C448.852 238.013 448.037 227.633 448.924 229.262Z" fill="#F7A491"/>
<path d="M487.225 218.905C483.57 220.647 474.246 242.281 474.246 242.281L486.238 249.631L490.018 238.629C490.018 238.629 491.721 216.76 487.225 218.905Z" fill="#F7CC7F"/>
<path d="M490.678 201.304C488.898 196.882 487.135 192.43 489.143 187.001C490.767 182.61 494.314 179.705 498.762 178.541C511.368 175.245 511.173 183.753 529.408 181.971C548.269 180.129 555.845 200.631 554.1 207.415C545.75 239.88 508.26 224.061 503.184 218.678C499.409 214.673 491.823 204.15 490.678 201.304Z" fill="#B75742"/>
<path d="M515.452 217.092C515.452 217.092 517.48 216.997 522.95 219.498C528.421 221.997 540.147 238.256 540.147 238.256L530.597 245.69L514.234 234.988C514.234 234.988 512.16 217.092 515.452 217.092Z" fill="#F7CC7F"/>
<path d="M484.624 273.549C490.253 276.541 514.314 277.906 514.314 277.906C514.851 272.275 516.938 252.63 518.191 240.522C519.766 232.093 517.165 229.676 515.452 217.092C515.439 217.008 506.715 216.399 506.715 216.399L497.636 216.622C497.636 216.622 489.736 217.258 487.225 218.905C487.051 219.018 486.051 233.241 486.831 243.317C487.366 250.188 488.146 255.732 488.094 260.274C488.023 266.874 484.624 273.549 484.624 273.549Z" fill="#FAE0B2"/>
<path d="M484.45 236.397C484.627 241.77 491.56 246.943 501.411 246.943C511.265 246.943 519.252 242.585 519.252 237.208C519.252 231.832 512.708 224.265 502.856 224.265C493.002 224.265 484.222 229.579 484.45 236.397Z" fill="#FAE0B2"/>
<path d="M504.593 203.048C504.593 203.048 504.785 204.413 505.079 206.293C505.616 209.735 505.889 215.381 506.583 217.097C507.189 218.609 501.915 232.901 500.179 228.917C497.135 221.936 497.225 219.836 497.066 217.977C496.913 216.136 496.417 209.835 496.087 205.636C495.908 203.362 495.777 201.708 495.777 201.708L504.593 203.048Z" fill="#F7A491"/>
<path d="M496.069 205.559C495.9 203.337 495.777 201.708 495.777 201.708L504.593 203.048C504.593 203.048 504.815 204.331 505.061 206.147C501.488 208.218 498.273 207.564 496.069 205.559Z" fill="#F47458"/>
<path d="M501.828 183.098C501.828 183.098 505.304 183.881 507.449 187.157C509.595 190.43 511.066 200.066 503.999 204.567C496.933 209.065 491.44 202.7 491.348 196.493C491.258 190.287 492.588 182.004 501.828 183.098Z" fill="#F7A491"/>
<path d="M489.731 194.552C490.332 196.048 491.529 196.979 492.401 196.626C493.273 196.276 493.493 194.777 492.89 193.279C492.289 191.783 491.092 190.852 490.22 191.205C489.345 191.555 489.128 193.054 489.731 194.552Z" fill="#F7A491"/>
<path d="M500.787 182.896C500.787 182.896 505.217 192.831 509.109 193.719C512.999 194.606 512.943 199.605 512.943 199.605C512.943 199.605 512.856 188.059 509.209 185.413C505.562 182.763 500.787 182.896 500.787 182.896Z" fill="#B75742"/>
<path d="M507.562 195.782C507.051 197.396 507.519 198.984 508.608 199.332C509.7 199.677 510.999 198.649 511.511 197.035C512.022 195.424 511.554 193.834 510.465 193.489C509.373 193.141 508.073 194.169 507.562 195.782Z" fill="#F7A491"/>
<path d="M433.648 223.884L439.692 213.039L438.84 212.563L432.794 223.406L433.648 223.884Z" fill="#FFD09F"/>
<path d="M433.648 223.884L439.692 213.039L439.198 212.763L433.155 223.608L433.648 223.884Z" fill="#FFB769"/>
<path d="M437.866 225.92L443.778 215.317L442.924 214.839L437.011 225.444L437.866 225.92Z" fill="#FFD09F"/>
<path d="M437.866 225.92L443.778 215.317L443.144 214.962L437.231 225.567L437.866 225.92Z" fill="#FFB769"/>
<path d="M442.137 228.301L448.047 217.696L447.193 217.22L441.282 227.822L442.137 228.301Z" fill="#FFD09F"/>
<path d="M442.137 228.301L448.047 217.696L447.528 217.407L441.617 228.009L442.137 228.301Z" fill="#FFB769"/>
<path d="M515.751 292.209C511.892 288.708 509.483 281.43 508.04 278.492C508.04 278.492 506.158 274.656 500.498 274.567C494.839 274.477 488.542 271.109 485.665 264.629C482.788 258.149 489.782 248.393 489.782 248.393L490.087 247.848C490.087 247.848 494.706 236.768 501.731 235.806C508.754 234.845 514.933 238.427 517.986 243.194C521.037 247.961 525.293 247.544 525.293 247.544C528.546 247.227 536.006 245.445 541.014 246.887C545.697 248.235 549.413 251.684 551.681 256.042C554.144 260.77 554.558 267.243 551.011 275.367C550.822 275.804 548.95 279.628 548.326 280.663C547.773 281.74 545.507 285.34 545.236 285.732C540.188 293.02 534.467 296.073 529.15 296.467C524.25 296.828 519.36 295.483 515.751 292.209Z" fill="#F47458"/>
<path d="M503.002 267.511C507.611 270.081 513.582 268.151 516.342 263.202C519.099 258.254 517.6 252.16 512.992 249.592C508.383 247.025 502.411 248.953 499.652 253.901C496.895 258.85 498.393 264.944 503.002 267.511Z" fill="#B75742"/>
<path d="M504.754 264.373C507.746 266.041 511.626 264.788 513.416 261.573C515.209 258.359 514.234 254.4 511.24 252.733C508.247 251.063 504.368 252.316 502.575 255.53C500.785 258.745 501.759 262.704 504.754 264.373Z" fill="#13375B"/>
<path d="M432.497 219.064C432.935 218.205 433.942 217.834 434.743 218.238L444.845 223.319C445.648 223.723 445.945 224.746 445.505 225.605C445.067 226.465 444.062 226.833 443.259 226.429L433.157 221.347C432.354 220.946 432.06 219.92 432.497 219.064ZM445.303 222.501L435.669 216.581C434.902 216.113 434.687 215.062 435.188 214.238C435.687 213.415 436.712 213.126 437.479 213.596L447.113 219.516C447.878 219.984 448.093 221.035 447.594 221.859C447.093 222.682 446.067 222.971 445.303 222.501ZM432.543 209.369C428.84 211.305 426.626 215.238 426.894 219.409L426.899 219.493L444.31 228.152C445.052 227.914 447.569 228.505 447.569 228.505L451.08 222.207C451.08 222.207 449.251 220.378 449.065 219.621L432.543 209.369Z" fill="#FF7700"/>
<path d="M502.575 255.53C501.647 257.198 501.462 259.067 501.918 260.711L447.569 228.505L451.08 222.207L507.406 252.073C505.473 252.382 503.649 253.605 502.575 255.53Z" fill="#184655"/>
<path d="M525.776 284.039L538.932 260.44L535.415 258.482L522.262 282.08L525.776 284.039Z" fill="#B75742"/>
<path d="M449.198 218.164L449.216 218.13C449.361 217.87 449.267 217.54 449.009 217.396L446.98 216.266C446.72 216.12 446.392 216.212 446.246 216.473L446.226 216.509C446.083 216.767 446.175 217.097 446.436 217.243L448.464 218.373C448.725 218.516 449.052 218.424 449.198 218.164Z" fill="#184655"/>
<path d="M444.909 215.773L444.929 215.739C445.073 215.478 444.981 215.151 444.72 215.005L442.692 213.875C442.431 213.729 442.103 213.824 441.958 214.085L441.94 214.118C441.794 214.379 441.886 214.706 442.147 214.852L444.175 215.982C444.436 216.128 444.763 216.033 444.909 215.773Z" fill="#184655"/>
<path d="M440.924 213.318L440.945 213.284C441.088 213.023 440.996 212.696 440.735 212.55L438.707 211.42C438.446 211.274 438.119 211.369 437.973 211.627L437.955 211.663C437.809 211.924 437.904 212.251 438.162 212.397L440.19 213.527C440.451 213.67 440.781 213.578 440.924 213.318Z" fill="#184655"/>
<path d="M434.697 224.49L434.717 224.454C434.861 224.196 434.768 223.866 434.508 223.721L432.48 222.593C432.221 222.447 431.891 222.539 431.746 222.8L431.728 222.836C431.582 223.094 431.677 223.424 431.935 223.57L433.963 224.697C434.224 224.843 434.554 224.751 434.697 224.49Z" fill="#184655"/>
<path d="M438.848 226.646L438.868 226.613C439.011 226.352 438.919 226.025 438.658 225.879L436.63 224.749C436.372 224.603 436.042 224.697 435.896 224.958L435.878 224.992C435.733 225.252 435.827 225.58 436.088 225.725L438.114 226.856C438.375 226.999 438.704 226.907 438.848 226.646Z" fill="#184655"/>
<path d="M443.024 228.973L443.045 228.94C443.19 228.679 443.096 228.352 442.835 228.206L440.807 227.076C440.548 226.93 440.219 227.025 440.073 227.285L440.055 227.319C439.909 227.579 440.004 227.907 440.265 228.053L442.29 229.183C442.551 229.329 442.881 229.234 443.024 228.973Z" fill="#184655"/>
<path d="M447.569 228.505L451.08 222.207L451.794 222.585L448.264 228.917L447.569 228.505Z" fill="#96D9C9"/>
<path d="M452.397 231.367L456.036 224.836L456.338 224.994L452.689 231.541L452.397 231.367Z" fill="#96D9C9"/>
<path d="M456.824 233.991L460.581 227.247L460.883 227.406L457.116 234.162L456.824 233.991Z" fill="#96D9C9"/>
<path d="M460.591 236.223L464.451 229.298L464.752 229.457L460.883 236.397L460.591 236.223Z" fill="#96D9C9"/>
<path d="M464.358 238.456L468.32 231.349L468.619 231.507L464.65 238.629L464.358 238.456Z" fill="#96D9C9"/>
<path d="M467.834 240.514L471.888 233.241L472.19 233.4L468.126 240.688L467.834 240.514Z" fill="#96D9C9"/>
<path d="M471.307 242.573L475.455 235.131L475.757 235.292L471.601 242.747L471.307 242.573Z" fill="#96D9C9"/>
<path d="M474.246 244.314L478.473 236.732L478.772 236.89L474.54 244.488L474.246 244.314Z" fill="#96D9C9"/>
<path d="M477.184 246.056L481.491 238.333L481.79 238.491L477.478 246.23L477.184 246.056Z" fill="#96D9C9"/>
<path d="M480.026 247.738L484.407 239.877L484.708 240.038L480.32 247.912L480.026 247.738Z" fill="#96D9C9"/>
<path d="M482.685 249.314L487.138 241.325L487.437 241.486L482.977 249.488L482.685 249.314Z" fill="#96D9C9"/>
<path d="M485.197 250.802L489.716 242.693L490.018 242.851L485.488 250.976L485.197 250.802Z" fill="#96D9C9"/>
<path d="M489.731 253.49L494.373 245.161L494.672 245.322L490.023 253.664L489.731 253.49Z" fill="#96D9C9"/>
<path d="M491.949 254.804L496.652 246.37L496.951 246.529L492.243 254.978L491.949 254.804Z" fill="#96D9C9"/>
<path d="M493.754 255.873L498.503 247.352L498.805 247.511L494.046 256.047L493.754 255.873Z" fill="#96D9C9"/>
<path d="M495.657 257.001L500.46 248.388L500.759 248.549L495.951 257.175L495.657 257.001Z" fill="#96D9C9"/>
<path d="M438.167 216.215L438.428 215.747L437.065 214.99L436.807 215.455L438.167 216.215Z" fill="white"/>
<path d="M435.671 220.69L435.85 220.373L434.635 219.695L434.459 220.015L435.671 220.69Z" fill="white"/>
<path d="M442.333 218.516L442.533 218.158L441.073 217.345L440.873 217.701L442.333 218.516Z" fill="white"/>
<path d="M439.83 223.01L440.103 222.521L438.791 221.79L438.518 222.278L439.83 223.01Z" fill="white"/>
<path d="M446.523 220.667L446.748 220.263L445.487 219.562L445.262 219.966L446.523 220.667Z" fill="white"/>
<path d="M443.766 225.725L443.899 225.485L442.735 224.838L442.602 225.076L443.766 225.725Z" fill="white"/>
<path d="M487.366 252.088L491.943 243.874L492.245 244.033L487.657 252.262L487.366 252.088Z" fill="#96D9C9"/>
<path d="M510.905 269.289C510.961 269.424 508.999 269.851 507.219 270.36C505.442 270.869 502.516 270.877 502.652 271.304C502.759 271.636 504.56 271.833 506.214 271.705C505.8 271.884 505.608 272.053 505.828 272.194C506.733 272.772 511.912 272.449 516.667 270.424C521.421 268.399 549.108 253.203 546.303 248.925C545.272 247.352 540.837 242.813 538.303 239.691L531.05 245.335L534.784 249.413C529.065 255.536 520.311 262.179 519.861 262.502C518.649 263.368 516.314 262.619 515.789 262.604C512.905 262.53 509.194 262.496 508.575 263.46C507.958 264.427 510.636 264.1 512.234 264.591C513.83 265.084 508.526 269.281 503.012 268.93C497.501 268.583 503.733 271.043 505.552 270.554C507.37 270.066 510.813 269.074 510.905 269.289Z" fill="#F7A491"/>
<path d="M473.532 244.856L459.517 239.757C458.96 239.555 458.753 239.005 458.594 238.433C457.481 234.379 450.939 232.671 450.742 232.814C450.62 232.901 449.285 238.182 453.589 241.951C459.538 246.969 474.376 257.535 477.611 256.047L473.532 244.856Z" fill="#F7A491"/>
<path d="M473.857 22.7321V22.7295C471.811 22.5991 467.55 20.6249 465.003 19.4435C462.31 18.1955 462.029 18.0651 461.509 18.4308C460.392 19.1008 460.469 19.1085 466.384 39.1319C460.128 38.1882 454.203 46.5658 458.2 50.8748C462.43 55.437 471.941 49.2049 470.397 42.7478H470.389C470.238 42.1366 467.673 33.4292 465.655 26.4223C469.522 28.7443 475.407 27.5858 476.353 23.8138L476.673 22.5378C475.169 22.75 475.857 22.8676 473.857 22.7321Z" fill="#50BFA5"/>
<path d="M303.322 19.6301C303.394 18.9703 303.89 11.7537 304.509 2.89019C295.143 2.60889 295.447 2.74443 287.131 0.230635C286.798 4.78257 286.489 9.36008 286.253 13.0425C282.013 10.7282 275.75 15.206 277.44 19.2311C279.266 23.5759 287.586 21.5685 288.156 16.6304H288.151C288.202 16.1752 288.45 12.1629 288.88 5.84129L301.959 7.77203C301.826 9.72834 301.662 12.2856 301.427 16.0397C297.21 13.7407 290.916 18.1878 292.614 22.2308C293.55 24.4557 296.66 25.2791 299.545 24.067C301.634 23.1873 303.12 21.4458 303.33 19.6301H303.322Z" fill="#96D9C9"/>
<path d="M80.1735 33.2399L79.9342 39.4541L85.5752 42.3489L84.8131 49.2944L91.773 50.5245L91.2584 58.4188L97.5268 60.3418L98.2728 68.0162L95.368 68.2975L94.81 62.5615L88.1953 60.5311L88.6902 52.9437L81.6142 51.6906L82.4546 44.0265L76.946 41.1981L77.1677 35.4417L73.1617 34.3421L73.9348 31.5266L80.1735 33.2399Z" fill="#9BC1F9"/>
<path d="M219.145 335.217H215.161V322.055C215.161 320.956 216.053 320.063 217.153 320.063C218.253 320.063 219.145 320.956 219.145 322.055V335.217Z" fill="#466EB6"/>
<path d="M150.133 406.414C150.133 409.036 148.044 411.161 145.466 411.161C142.888 411.161 140.798 409.036 140.798 406.414C140.798 403.793 142.888 401.671 145.466 401.671C148.044 401.671 150.133 403.793 150.133 406.414Z" fill="#184655"/>
<path d="M184.404 406.414C184.404 409.036 182.314 411.161 179.736 411.161C177.158 411.161 175.068 409.036 175.068 406.414C175.068 403.793 177.158 401.671 179.736 401.671C182.314 401.671 184.404 403.793 184.404 406.414Z" fill="#184655"/>
<path d="M235.574 406.414C235.574 409.036 233.485 411.161 230.907 411.161C228.329 411.161 226.24 409.036 226.24 406.414C226.24 403.793 228.329 401.671 230.907 401.671C233.485 401.671 235.574 403.793 235.574 406.414Z" fill="#184655"/>
<path d="M302.089 406.414C302.089 409.036 300 411.161 297.422 411.161C294.844 411.161 292.754 409.036 292.754 406.414C292.754 403.793 294.844 401.671 297.422 401.671C300 401.671 302.089 403.793 302.089 406.414Z" fill="#184655"/>
<path d="M223.613 331.893H211.488C209.872 333.499 208.861 335.737 208.861 338.215C208.861 343.091 212.754 347.047 217.552 347.047C222.35 347.047 226.24 343.091 226.24 338.215C226.24 335.737 225.232 333.499 223.613 331.893Z" fill="#466EB6"/>
<path d="M281.645 313.317C281.688 312.997 281.773 312.698 281.88 312.417C279.719 310.839 278.105 308.468 276.251 306.489C275.816 307.578 275.522 308.816 275.412 310.207C274.56 320.953 285.205 332.315 285.591 349.638C285.98 367.109 273.246 380.75 257.274 373.553C251.392 370.904 244.392 373.083 243.543 380.701C242.262 392.193 258.786 395.83 268.926 392.508C289.44 385.787 301.867 362.841 295.243 339.744C291.949 328.254 280.831 319.477 281.645 313.317Z" fill="#184655"/>
<path d="M304.117 395.584H140.855L130.985 339.511H304.117V395.584Z" fill="#3C8F7C"/>
<path d="M130.985 339.511L140.855 395.584H230.508L241.188 339.511H130.985Z" fill="#96D9C9"/>
<path d="M309.061 339.511H123.492V336.918H309.061V339.511Z" fill="#13375B"/>
<path d="M309.061 398.177H123.492V395.584H309.061V398.177Z" fill="#13375B"/>
<path d="M309.061 408.194H123.492V398.177H309.061V408.194Z" fill="#96D9C9"/>
<path d="M309.061 408.194H224.879V398.177H309.061V408.194Z" fill="#3C8F7C"/>
<path d="M309.061 336.918H123.492V334.486H309.061V336.918Z" fill="#50BFA5"/>
<path d="M297.422 331.348H137.84V325.413H297.422V331.348Z" fill="#F47458"/>
<path d="M294.938 224.772C272.254 211.829 231.477 187.397 198.394 152.738C165.31 118.082 169.406 69.8088 169.406 69.8088C139.553 72.3226 131.824 135.334 131.824 135.334C96.1071 154.881 108.634 209.98 108.634 209.98C108.634 209.98 103.837 214.448 96.6401 237.903C89.4431 261.358 94.869 285.716 94.869 285.716C119.617 241.453 213.038 236.382 253.899 239.859C294.312 243.296 319.511 249.153 321.068 272.188C322.608 294.956 280.829 304.001 280.054 304.162C281.243 305.32 281.138 307.857 281.829 309.558C285.928 308.906 335.219 304.162 331.198 266.665C328.904 245.299 313.383 235.295 294.938 224.772Z" fill="#F7CC7F"/>
<path d="M282.755 308.287C282.755 314.79 277.568 320.063 271.172 320.063C264.773 320.063 259.586 314.79 259.586 308.287C259.586 301.784 264.773 296.511 271.172 296.511C277.568 296.511 282.755 301.784 282.755 308.287Z" fill="#13375B"/>
<path d="M269.868 318.038L271.103 325.413L272.341 318.038H269.868Z" fill="#13375B"/>
<path d="M184.686 169.752C184.751 169.818 188.583 173.626 188.34 173.383C188.404 173.445 192.399 177.089 192.151 176.864C193.506 177.902 202.169 186.003 217.552 194.685C198.424 185.183 186.165 174.079 187.054 174.808C186.99 174.749 182.887 171.082 183.149 171.317C150.8 140.356 152.214 111.372 151.794 109.464C151.786 107.848 153.09 106.534 154.706 106.526C156.399 106.518 157.744 107.94 157.641 109.633C156.742 124.291 164.336 148.097 184.686 169.752Z" fill="#FAE0B2"/>
<path d="M223.263 204.682L124.681 171.279C121.018 170.038 122.891 164.497 126.558 165.74C126.607 165.758 122.487 164.098 223.263 204.682Z" fill="#FAE0B2"/>
<path d="M180.737 217.036C206.079 214.103 221.306 217.588 226.239 218.289C220.618 217.88 200.307 213.811 166.304 222.324C133.575 230.625 110.488 245.923 111.175 245.483C107.923 247.575 104.751 242.662 108.008 240.565C108.044 240.54 153.523 220.079 180.737 217.036Z" fill="#FAE0B2"/>
<path d="M270.742 138.267C270.742 138.267 271.036 137.433 270.798 135.62C270.502 133.377 269.65 130.038 269.525 129.749C269.297 129.227 276.294 126.087 276.294 126.087C276.294 126.087 287.885 124.107 289.465 122.599C291.046 121.092 292.442 120.381 291.793 121.826C290.619 124.442 287.627 128.427 286.926 129.004C286.225 129.582 277.438 132.935 277.274 132.955C277.11 132.973 277.842 138.661 277.842 138.661L270.742 138.267Z" fill="#F7A491"/>
<path d="M278.018 134.942C278.018 134.942 270.318 134.554 270.269 135.326C269.2 152.391 269.338 157.973 269.021 158.188C267.942 158.914 249.796 146.442 246.97 145.821C245.618 145.524 244.213 145.767 242.863 145.967C239.643 146.448 240.723 146.24 239.029 146.524L239.032 146.529C238.94 146.545 238.889 146.555 238.889 146.555L239.267 149.593C243.295 152.434 257.515 201.043 258.213 200.928C258.991 200.797 275.952 202.989 275.497 201.636C275.425 201.416 263.226 193.637 258.515 180.881C256.934 176.6 255.847 171.915 254.781 167.831C258.658 169.23 273.783 174.567 275.939 173.37C282.64 169.645 278.018 134.942 278.018 134.942Z" fill="#355389"/>
<path d="M316.83 219.639C316.83 219.639 333.577 229.825 334.341 231.891C335.441 234.868 348.996 229.175 345.536 228.953C344.743 228.902 342.175 228.564 341.958 228.48C340.791 228.024 325.209 213.213 325.209 213.213L316.83 219.639Z" fill="#F7A491"/>
<path d="M352.116 228.17L342.239 228.536C342.239 228.536 339.717 231.183 334.357 231.927C334.357 231.927 333.789 234.484 334.536 237.305C334.666 237.791 334.927 239.279 335.423 239.184C337.216 238.847 341.889 237.077 347.247 235.331C347.247 235.331 354.433 232.893 358.389 229.84C362.346 226.787 352.116 228.17 352.116 228.17Z" fill="#96D9C9"/>
<path d="M244.605 197.682C244.605 197.682 256.047 198.235 268.113 193.859C282.074 188.799 297.583 183.807 302.557 185.96C306.56 187.694 334.137 220.25 334.137 220.25L325.889 227.912L296.718 202.137C296.718 202.137 265.307 218.153 257.771 217.685C240.605 216.622 238.774 203.232 244.605 197.682Z" fill="#B75742"/>
<path d="M256.024 189.098L268.834 201.107L248.761 209.922L244.605 197.682L256.024 189.098Z" fill="#B75742"/>
<path d="M286.072 247.329C286.072 247.329 287.588 265.938 287.54 269.127C287.489 272.301 296.89 280.73 295.442 277.582C295.11 276.858 294.187 274.439 294.158 274.209C294.005 272.966 294.575 251.462 294.575 251.462L286.072 247.329Z" fill="#F7A491"/>
<path d="M299.255 283.001L294.243 274.482C294.243 274.482 290.716 273.521 287.511 269.158C287.511 269.158 284.992 269.874 282.867 271.871C282.499 272.217 279.998 274.546 280.243 274.986C281.148 276.605 285.312 279.807 289.864 283.302C289.864 283.302 296.202 287.281 300.769 289.312C305.335 291.342 299.255 283.001 299.255 283.001Z" fill="#96D9C9"/>
<path d="M299.923 208.635C295.378 203.871 263.123 202.659 263.123 202.659L252.28 186.737L234.183 201.094C234.183 201.094 237.978 216.397 239.937 220.373C242.546 225.674 255.699 224.398 263.704 223.365C271.07 222.414 284.716 222.319 284.716 222.319L284.931 263.046C284.931 263.046 294.128 264.021 296.603 263.394C296.885 263.322 305.578 214.566 299.923 208.635Z" fill="#F47458"/>
<path d="M239.001 146.57L228.055 148.481C228.055 148.481 227.815 148.601 227.741 148.624C226.864 148.895 231.487 180.899 233.71 192.793C235.935 204.687 238.155 209.53 238.155 209.53C238.155 209.53 252.781 205.106 257.154 202.782C258.97 201.818 262.891 195.514 262.891 195.514C262.891 195.514 257.436 189.747 253.845 179.753C251.078 172.048 247.157 158.27 245.518 155.49C241.756 149.107 239.001 146.57 239.001 146.57Z" fill="#96D9C9"/>
<path d="M227.219 138.73L228.058 148.493C228.058 148.493 236.648 159.932 240.106 157.787C243.006 155.984 239.173 146.962 239.173 146.962C239.173 146.962 238.385 144.883 237.354 142.509C236.636 140.85 235.986 139.037 235.856 137.666C235.538 134.334 227.219 138.73 227.219 138.73Z" fill="#F7A491"/>
<path d="M233.104 115.538C233.104 115.538 237.388 120.583 238.206 125.161C239.024 129.738 238.421 133.001 238.421 133.001L225.107 120.445L233.104 115.538Z" fill="#184655"/>
<path d="M239.303 124.074C239.659 125.67 239.196 127.13 238.267 127.337C237.341 127.544 236.301 126.419 235.945 124.823C235.59 123.23 236.053 121.77 236.981 121.563C237.907 121.356 238.948 122.481 239.303 124.074Z" fill="#F48C7F"/>
<path d="M221.6 123.128C221.324 123.102 222.943 136.518 227.209 139.213C231.472 141.908 238.275 141.382 239.873 137.968C241.643 134.191 237.886 120.297 231.743 117.983C225.603 115.666 221.6 123.128 221.6 123.128Z" fill="#F7A491"/>
<path d="M219.626 114.924C216.966 117.878 215.754 119.952 214.293 124.818C212.498 130.802 218.099 136.116 222.488 137.97C226.874 139.827 227.564 142.66 227.564 142.66L227.516 140.852C227.526 139.443 227.012 138.699 226.518 137.904C226.081 137.198 224.654 134.769 224.135 134.145C222.766 132.5 222.493 132.14 222.861 130.378C223.147 129.02 222.296 126.204 222.72 123.974L228.112 122.125C228.112 122.125 231.475 120.883 232.984 118.658C237.316 112.272 226.626 106.991 219.626 114.924Z" fill="#184655"/>
<path d="M224.352 131.69C225.209 133.081 225.247 134.613 224.436 135.111C223.628 135.61 222.278 134.884 221.424 133.492C220.567 132.101 220.529 130.57 221.337 130.071C222.148 129.575 223.495 130.298 224.352 131.69Z" fill="#F7A491"/>
<path d="M182.263 99.1483C183.199 101.657 184.817 105.605 184.817 105.605C184.861 106.738 185.083 111.446 185.368 117.218L193.384 112.853C193.384 112.853 192.174 103.537 192.483 102.923C192.744 102.401 193.348 102.941 195.488 98.9438C196.107 97.7904 196.02 95.8699 196.02 95.8699C196.02 95.8699 195.895 93.5096 195.345 93.3536C194.793 93.1976 194.23 93.6195 194.087 94.0466C193.946 94.4762 194.107 95.4122 193.964 95.8393C193.821 96.2663 192.662 96.898 192.146 96.9338C191.632 96.9696 191.389 89.9984 191.389 89.9984C191.389 89.9984 191.442 88.0063 191.512 87.3466C191.57 86.7865 191.877 85.1269 191.877 85.1269C191.877 85.1269 192.184 82.7332 191.442 82.6412C191.005 82.5875 190.146 84.6052 189.639 86.6945C189.095 88.9474 188.913 91.2899 188.68 91.2873C188.136 91.2796 187.969 87.4591 187.969 87.4591C187.969 87.4591 188.299 85.6613 188.189 84.8456C188.576 83.7817 188.691 81.8817 187.783 81.8331C187.614 81.8254 186.721 84.3264 186.721 84.3264C186.721 84.3264 186.458 86.0449 186.282 86.8556C185.971 88.2825 186.156 90.4562 186.022 91.4408C185.91 92.2591 185.686 91.9548 185.605 91.9982C185.542 92.0315 185.527 90.9216 185.479 89.4C185.455 88.6354 185.264 87.7711 185.374 86.8811C185.476 86.0577 185.453 84.8993 185.422 84.2011C185.333 82.2269 184.124 82.5721 183.91 84.4134C183.829 85.1166 183.747 85.8787 183.666 86.6535C183.352 89.6686 183.706 92.4943 183.392 92.5557C182.985 92.635 182.645 87.454 182.645 87.454C182.645 87.454 181.676 84.6793 181.363 87.3977C181.001 90.5534 181.374 93.0467 181.397 93.1567C181.552 93.8983 181.328 96.6397 182.263 99.1483Z" fill="#F8A492"/>
<path d="M228.045 148.499C228.045 148.499 217.076 149.279 214.109 148.34C212.309 147.77 196.933 138.129 196.933 138.129L193.499 107.835L183.539 108.255C183.539 108.255 182.393 142.325 184.6 145.778C186.88 149.342 209.268 162.477 214.178 168.747C217.007 172.36 225.546 221.253 226.349 221.642C231.994 223.777 251.415 228.055 250.83 226.424C234.641 181.324 228.045 148.499 228.045 148.499Z" fill="#355389"/>
<path d="M274.427 129.828C274.427 129.828 277.31 128.166 278.092 127.797C278.872 127.429 281.42 126.634 281.42 126.634C281.42 126.634 284.967 122.005 285.985 121.775C287.003 121.545 284.164 126.583 284.164 126.583L282.913 128.107C282.913 128.107 284.959 125.882 285.361 125.56C285.762 125.238 288.596 119.898 289.501 120.121C290.407 120.343 288.488 124.089 287.568 126.069C286.647 128.048 281.576 129.805 281.576 129.805L274.427 129.828Z" fill="#F7A491"/>
<path d="M289.215 114.047C289.141 113.965 281.64 105.764 267.292 100.716C246.82 93.507 211.718 101.406 201.299 78.8104C199.44 74.7776 199.353 71.6245 199.35 71.4915C199.34 71.0108 200.069 70.9954 200.079 71.4762C200.082 71.5069 200.171 74.637 201.977 78.5368C212.207 100.632 246.945 92.7808 267.535 100.028C277.834 103.652 286.302 109.723 289.757 113.561C290.079 113.919 289.537 114.408 289.215 114.047Z" fill="#86B1F2"/>
<path d="M288.931 110.175C288.647 109.866 281.831 102.544 269.047 98.0206C255.119 93.0749 233.695 94.2845 220.823 88.5229C213.002 85.022 209.176 80.0124 207.347 76.4271C205.358 72.5247 205.227 69.4892 205.222 69.3639C205.207 68.8806 205.936 68.855 205.951 69.3358C205.954 69.3818 206.092 72.3764 208.015 76.1304C209.792 79.6006 213.511 84.4518 221.119 87.858C233.861 93.5608 255.241 92.3461 269.29 97.3353C282.243 101.918 289.179 109.367 289.468 109.684C289.604 109.833 289.593 110.063 289.445 110.198C289.299 110.334 289.066 110.326 288.931 110.175Z" fill="#86B1F2"/>
<path d="M288.645 106.301C285.606 102.992 279.325 98.371 270.796 95.3278C257.341 90.5022 239.053 90.6327 227.557 85.8097C219.37 82.3752 215.332 77.5241 213.386 74.059C211.268 70.2845 211.102 67.3564 211.094 67.2337C211.071 66.7529 211.8 66.712 211.823 67.1953C211.826 67.226 211.994 70.108 214.043 73.7394C215.935 77.0945 219.864 81.7948 227.838 85.1371C233.643 87.5742 241.162 88.7198 249.124 89.9345C256.645 91.0802 264.42 92.2667 271.044 94.6424C279.696 97.7291 286.087 102.434 289.182 105.81C289.506 106.165 288.969 106.656 288.645 106.301Z" fill="#86B1F2"/>
<path d="M288.358 102.427C275.351 88.2467 248.998 88.8144 234.293 83.0989C225.725 79.7694 221.472 75.0717 219.416 71.7191C217.171 68.0596 216.974 65.2211 216.966 65.1009C216.938 64.6201 217.664 64.5766 217.695 65.0574C217.698 65.1085 217.905 67.8832 220.063 71.379C222.063 74.6241 226.204 79.1709 234.556 82.4187C249.213 88.1137 275.678 87.5255 288.895 101.936C289.031 102.084 289.02 102.314 288.872 102.45C288.724 102.585 288.494 102.575 288.358 102.427Z" fill="#86B1F2"/>
<path d="M231.797 73.6651C230.59 72.407 229.063 68.7398 228.15 66.5508C226.925 63.6074 227.073 64.2109 226.605 63.9757C225.626 63.7788 226.452 64.4871 218.639 80.4598C215.403 76.225 206.125 77.2658 206.153 82.1834C206.168 84.7279 208.851 86.9987 212.468 86.9783C214.982 86.9629 217.24 85.8122 218.224 84.0451L218.219 84.0425C218.475 83.5745 221.871 76.6367 224.669 71.0184C225.646 74.7341 230.017 77.4422 232.746 75.6419L233.569 75.0972L232.733 74.5704C232.444 74.3863 231.84 73.7112 231.797 73.6651Z" fill="#466EB6"/>
<path d="M282.251 88.9372V88.9346C280.767 88.5101 277.952 86.3773 276.266 85.1038C274.486 83.7561 274.302 83.6129 273.862 83.7996C272.934 84.1116 273.896 84.5412 275.041 100.207C270.594 98.5116 263.988 103.312 266.238 107.119C268.617 111.15 276.604 108.091 276.504 103.097H276.499C276.486 102.621 275.993 94.6706 275.632 89.198C278.1 91.5226 282.614 92.7526 283.911 90.1314L284.35 89.244C283.21 89.1597 283.698 89.3566 282.251 88.9372Z" fill="#466EB6"/>
<path d="M258.026 89.0446C258.008 88.3823 257.525 81.1631 256.942 72.297C247.623 73.2842 247.945 73.3762 239.362 72.0106C239.648 76.5651 239.958 81.1426 240.224 84.8225C235.71 83.1015 230.109 88.3874 232.329 92.1466C234.725 96.2049 242.252 91.9471 242.15 86.9783C242.15 86.9783 241.646 83.0171 241.216 76.6955L255.725 76.8285C255.858 78.7823 256.019 82.6233 256.292 86.3748C251.804 84.664 245.538 89.2927 247.768 93.0672C248.996 95.1462 252.188 95.5401 254.883 93.9494C256.835 92.7987 258.072 90.8705 258.034 89.042L258.026 89.0446Z" fill="#466EB6"/>
<path d="M448.459 230.551C448.244 227.817 450.806 232.681 451.671 233.08C453.41 237.642 454.783 228.239 455.758 230.858C455.903 231.254 456.285 232.602 456.714 233.569C456.944 234.088 457.77 237.343 458.325 237.463L455.666 241.951C454.512 241.353 453.517 240.921 452.702 240.419C450.267 238.923 449.108 233.584 448.459 230.551Z" fill="#F7A491"/>
<path d="M455.893 231.52C455.893 231.52 457.067 234.804 455.556 235.167C451.891 236.052 450.024 235.471 448.868 232.039C447.878 229.106 447.983 225.933 448.405 225.996C448.904 226.071 449.617 229.697 449.962 230.827C450.308 231.957 448.188 224.063 449.691 224.552C450.21 224.72 451.569 230.167 451.765 230.812C451.965 231.456 450.707 225.02 451.609 224.92C452.52 224.82 453.612 230.779 454.001 231.124C454.389 231.466 452.231 224.815 453.817 225.334C454.76 225.646 455.893 231.52 455.893 231.52Z" fill="#F7A491"/>
</g>
<defs>
<clipPath id="clip0_15_171">
<rect width="578" height="414" fill="white"/>
</clipPath>
</defs>
</svg>
