<svg width="175" height="82" viewBox="0 0 175 82" fill="none" xmlns="http://www.w3.org/2000/svg">
<g clip-path="url(#clip0_30_452)">
<path d="M27.1844 14.9051C15.9563 18.4669 8.77105 29.2167 9.76773 40.2497C10.882 52.5894 21.9872 62.5589 35.2647 62.2329C19.462 65.6238 5.07022 54.214 4.09758 40.6853C3.2345 28.6663 13.0678 16.4976 27.1844 14.9051Z" fill="#28235D"/>
<path d="M2.55842 31.2582C-0.132367 43.6807 5.03811 56.1272 15.0637 62.0405C27.3847 69.3059 40.4619 62.8207 41.2287 62.4253C50.3993 57.6823 56.2458 48.0575 56.4275 37.4146C58.2499 48.771 53.221 60.0845 43.7298 66.0807C33.2179 72.7208 19.4032 71.4649 10.1124 63.3097C1.10748 55.4057 -1.94671 42.513 2.55842 31.2582Z" fill="#28235D"/>
<path d="M48.9243 33.5669C46.8989 30.1894 47.0539 25.9408 49.3091 22.7931C51.7113 19.4396 56.0481 17.9593 60.0829 19.1376C58.7709 19.5037 55.2304 20.6794 52.3873 24.1398C49.1915 28.0277 48.9484 32.2709 48.9243 33.5669Z" fill="#28235D"/>
<path d="M41.3865 24.9574C44.1624 24.9574 46.4126 22.7071 46.4126 19.9312C46.4126 17.1554 44.1624 14.9051 41.3865 14.9051C38.6106 14.9051 36.3603 17.1554 36.3603 19.9312C36.3603 22.7071 38.6106 24.9574 41.3865 24.9574Z" fill="#28235D"/>
<path d="M28.9158 11.442C28.8009 13.5022 28.8357 16.5591 29.6854 20.0996C30.8397 24.9067 32.9239 28.228 34.4951 30.681C38.3803 36.7546 40.7184 37.3692 44.1146 43.7635C45.7072 46.7616 46.2736 48.6133 46.2309 50.6895C46.1561 54.3663 44.2081 57.1105 43.1527 58.3851C44.9082 57.6476 46.1267 56.7258 46.8882 56.0497C47.7032 55.3256 50.541 52.8753 51.1582 49.1344C51.543 46.799 50.9311 44.7709 50.2711 43.1863C46.303 33.663 36.8679 31.2689 31.8017 21.6387C30.7622 19.664 29.3487 16.3239 28.9158 11.442Z" fill="#28235D"/>
<path d="M42.3777 48.5145C42.3483 49.4604 42.1212 53.8613 38.8613 56.4292C34.9226 59.5288 27.9672 58.8447 23.0345 53.7918C23.5529 54.7698 26.0299 59.1814 31.1229 60.4747C35.5826 61.6076 42.0785 60.3571 43.7031 55.9188C44.8922 52.6695 42.8827 49.3107 42.3777 48.5145Z" fill="#28235D"/>
<path d="M29.1082 9.32578C29.7228 6.51208 31.2967 4.51603 32.7637 4.51603C34.6742 4.51603 36.045 7.90156 36.2267 10.2877C36.5179 14.0767 33.926 16.8156 33.3408 17.4061C34.3509 16.7461 37.5173 14.4909 38.343 10.4801C39.1339 6.63767 37.6856 1.61416 35.0723 1.05302C33.4985 0.713666 31.97 2.09513 31.4169 2.59214C28.6967 5.04511 29.0521 8.81007 29.1082 9.32578Z" fill="#28235D"/>
<path d="M30.5939 33.5669C29.7282 33.8341 25.1161 35.3572 22.5616 40.2497C19.8949 45.3587 21.5169 50.2273 21.8001 51.0369C21.7226 49.2252 21.8001 45.2545 24.0286 40.9552C26.1342 36.8856 29.0975 34.5823 30.5939 33.5695V33.5669Z" fill="#28235D"/>
<path d="M46.1347 67.0427C46.1908 67.2752 47.2062 71.8872 44.1574 74.9708C41.528 77.6295 37.0363 77.9795 33.5519 75.5239C33.6133 76.0904 34.0302 79.5774 36.6087 81.0551C39.8393 82.9068 44.3498 80.3897 46.3164 77.1832C48.1227 74.2333 48.0185 70.3133 46.1374 67.04L46.1347 67.0427Z" fill="#28235D"/>
</g>
<path d="M88.793 33.0508V48.4375H91.7695V50.5H86.4609V45.0625H86.4141C86.1875 45.25 85.9219 45.4219 85.6172 45.5781C85.3203 45.7344 84.9961 45.8711 84.6445 45.9883C84.293 46.1055 83.9219 46.1953 83.5312 46.2578C83.1484 46.3203 82.7578 46.3516 82.3594 46.3516C81.3281 46.3516 80.4141 46.1992 79.6172 45.8945C78.8203 45.582 78.1484 45.1328 77.6016 44.5469C77.0547 43.9609 76.6406 43.2383 76.3594 42.3789C76.0781 41.5195 75.9375 40.5391 75.9375 39.4375V38.0312H78.2578V39.4375C78.2578 41.0938 78.6094 42.332 79.3125 43.1523C80.0234 43.9727 81.1562 44.3828 82.7109 44.3828C83.1484 44.3828 83.5586 44.3516 83.9414 44.2891C84.332 44.2266 84.6875 44.1484 85.0078 44.0547C85.3359 43.9609 85.6211 43.8594 85.8633 43.75C86.1055 43.6328 86.3047 43.5195 86.4609 43.4102V33.0508H88.793ZM116.76 43.4922C116.76 45.0312 116.537 46.3281 116.092 47.3828C116.49 47.4766 116.873 47.5898 117.24 47.7227C117.615 47.8555 117.978 48.0039 118.33 48.168V50.9453H118.154C117.732 50.5703 117.232 50.2344 116.654 49.9375C116.076 49.6406 115.474 49.4141 114.849 49.2578C113.748 50.3281 112.15 50.8633 110.056 50.8633C107.767 50.8633 106.08 50.2422 104.994 49C103.908 47.7578 103.365 45.9219 103.365 43.4922V33.0508H105.685V43.6094C105.685 44.3438 105.748 45.0312 105.873 45.6719C105.998 46.3125 106.224 46.8711 106.552 47.3477C106.881 47.8164 107.326 48.1875 107.888 48.4609C108.459 48.7344 109.181 48.8711 110.056 48.8711C110.705 48.8711 111.275 48.7969 111.767 48.6484V47.043H113.138C113.248 47.043 113.353 47.043 113.455 47.043C113.556 47.043 113.658 47.0469 113.76 47.0547C114.213 46.2422 114.439 45.1133 114.439 43.668V33.0508H116.76V43.4922ZM137.39 32.6875C138.515 32.6875 139.554 32.8438 140.507 33.1562C141.46 33.4688 142.285 33.9219 142.98 34.5156C143.675 35.1016 144.218 35.8242 144.609 36.6836C145 37.543 145.195 38.5156 145.195 39.6016V50.5H142.875V39.6016C142.875 38.8516 142.761 38.1875 142.535 37.6094C142.316 37.0234 142.007 36.5195 141.609 36.0977C141.21 35.6758 140.738 35.3398 140.191 35.0898C139.644 34.8398 139.05 34.6758 138.41 34.5977V45.5195H136.089V34.6445C135.496 34.7461 134.929 34.9219 134.39 35.1719C133.851 35.4219 133.375 35.75 132.96 36.1562C132.554 36.5625 132.23 37.0508 131.988 37.6211C131.746 38.1836 131.625 38.8281 131.625 39.5547V40.9141H129.292V39.6016C129.292 38.5 129.503 37.5234 129.925 36.6719C130.347 35.8125 130.925 35.0898 131.66 34.5039C132.394 33.9102 133.25 33.4609 134.226 33.1562C135.21 32.8438 136.265 32.6875 137.39 32.6875ZM157.259 46.5977H159.298V38.6875C159.298 37.8828 159.454 37.1172 159.767 36.3906C160.079 35.6641 160.517 35.0273 161.079 34.4805C161.642 33.9258 162.314 33.4883 163.095 33.168C163.876 32.8398 164.736 32.6758 165.673 32.6758C166.611 32.6758 167.474 32.8203 168.263 33.1094C169.052 33.3984 169.736 33.8047 170.314 34.3281C170.892 34.8438 171.341 35.4609 171.661 36.1797C171.99 36.8906 172.154 37.6719 172.154 38.5234C172.154 39.375 171.99 40.1641 171.661 40.8906C171.341 41.6172 170.892 42.2461 170.314 42.7773C169.743 43.3086 169.064 43.7266 168.275 44.0312C167.486 44.3281 166.626 44.4766 165.697 44.4766C165.376 44.4766 165.021 44.4375 164.63 44.3594C164.247 44.2812 163.868 44.1719 163.493 44.0312C163.118 43.8906 162.767 43.7266 162.439 43.5391C162.118 43.3516 161.865 43.1484 161.677 42.9297H161.618V46.5977H172.493V48.6367H161.618V50.5H159.298V48.6367H157.259V46.5977ZM169.728 38.5586C169.728 37.9414 169.611 37.3906 169.376 36.9062C169.15 36.4219 168.845 36.0117 168.462 35.6758C168.087 35.3398 167.658 35.0859 167.173 34.9141C166.689 34.7344 166.193 34.6445 165.685 34.6445C165.177 34.6445 164.677 34.7344 164.185 34.9141C163.7 35.0859 163.267 35.3398 162.884 35.6758C162.501 36.0117 162.193 36.4258 161.958 36.918C161.732 37.4023 161.618 37.9531 161.618 38.5703C161.618 39.2578 161.732 39.8438 161.958 40.3281C162.193 40.8125 162.497 41.207 162.872 41.5117C163.247 41.8164 163.677 42.0391 164.161 42.1797C164.654 42.3203 165.158 42.3906 165.673 42.3906C166.189 42.3906 166.689 42.3086 167.173 42.1445C167.665 41.9727 168.099 41.7266 168.474 41.4062C168.849 41.0781 169.15 40.6758 169.376 40.1992C169.611 39.7227 169.728 39.1758 169.728 38.5586Z" fill="#28235D"/>
<defs>
<clipPath id="clip0_30_452">
<rect width="60" height="82" fill="white"/>
</clipPath>
</defs>
</svg>
