<svg width="24" height="24" viewBox="0 0 24 24" fill="none" xmlns="http://www.w3.org/2000/svg">
<g id="vuesax/linear/note-2">
<g id="note-2">
<path id="Vector" d="M21.6612 10.44L20.6812 14.62C19.8412 18.23 18.1812 19.69 15.0612 19.39C14.5612 19.35 14.0212 19.26 13.4412 19.12L11.7612 18.72C7.59116 17.73 6.30116 15.67 7.28116 11.49L8.26116 7.30001C8.46116 6.45001 8.70116 5.71001 9.00116 5.10001C10.1712 2.68001 12.1612 2.03001 15.5012 2.82001L17.1712 3.21001C21.3612 4.19001 22.6412 6.26001 21.6612 10.44Z" stroke="white" stroke-width="1.5" stroke-linecap="round" stroke-linejoin="round"/>
<path id="Vector_2" d="M15.0613 19.39C14.4413 19.81 13.6613 20.16 12.7113 20.47L11.1313 20.99C7.16132 22.27 5.07132 21.2 3.78132 17.23L2.50132 13.28C1.22132 9.31001 2.28132 7.21001 6.25132 5.93001L7.83132 5.41001C8.24132 5.28001 8.63132 5.17001 9.00132 5.10001C8.70132 5.71001 8.46132 6.45001 8.26132 7.30001L7.28132 11.49C6.30132 15.67 7.59132 17.73 11.7613 18.72L13.4413 19.12C14.0213 19.26 14.5613 19.35 15.0613 19.39Z" stroke="white" stroke-width="1.5" stroke-linecap="round" stroke-linejoin="round"/>
<path id="Vector_3" d="M12.6406 8.53L17.4906 9.76" stroke="white" stroke-width="1.5" stroke-linecap="round" stroke-linejoin="round"/>
<path id="Vector_4" d="M11.6611 12.4L14.5611 13.14" stroke="white" stroke-width="1.5" stroke-linecap="round" stroke-linejoin="round"/>
</g>
</g>
</svg>
